<svg fill="none" height="52" viewBox="0 0 98 52" width="98" xmlns="http://www.w3.org/2000/svg"><g clip-rule="evenodd" fill="#6b7b84" fill-rule="evenodd"><path d="m36.5703.592529c-.5523 0-1 .447711-1 1.000001v4.27495c0 .55229.4477 1 1 1h36.327c10.1269 0 18.0804 7.79662 18.0804 17.88952 0 .2855.2315.517.5171.517h5.2622c.2855 0 .517-.2315.517-.517 0-13.4893-10.842-24.164471-24.3767-24.164471z" stroke="#80949f" stroke-width=".5"/><path d="m7.10682 25.7122c0-.242-.19623-.4383-.43829-.4383h-5.50417c-.242057 0-.438286.1963-.438286.4383 0 13.6494 10.223226 24.9189 23.442626 25.6564l42.3417.0378c.5526.0005 1.0009-.4474 1.0009-1v-4.5797c0-.5522-.4478-1-1-1h-40.8848c-10.2362-.0283-18.51968-8.5437-18.51968-19.1145z" stroke="#80949f" stroke-width=".5"/><path d="m28.1415 39.7924c2.7388 0 5.0201-.5321 7.2734-1.6269l.1555-.1456v-7.8344l-.8431 1.0794c-1.6224 1.7729-3.8014 2.7488-6.2665 2.7488-4.5916 0-9.2033-2.9678-9.2033-8.6399 0-4.2864 3.1806-8.8418 9.0418-8.8418 1.1695 0 4.0137.2765 6.4239 2.836l.8472 1.0437v-7.799l-.1486-.1474c-2.296-1.1506-4.6375-1.7099-7.3081-1.7099-4.567 0-8.1316 1.2023-10.9699 3.6735-1.8003 1.5488-4.803 5.0196-4.803 10.8634 0 4.3208 1.5385 7.6952 4.8261 10.6221 3.0583 2.6818 6.4494 3.878 10.9746 3.878z"/></g><path d="m28.1415 39.7924c2.7388 0 5.0201-.5321 7.2734-1.6269l.1555-.1456v-7.8344l-.8431 1.0794c-1.6224 1.7729-3.8014 2.7488-6.2665 2.7488-4.5916 0-9.2033-2.9678-9.2033-8.6399 0-4.2864 3.1806-8.8418 9.0418-8.8418 1.1695 0 4.0137.2765 6.4239 2.836l.8472 1.0437v-7.799l-.1486-.1474c-2.296-1.1506-4.6375-1.7099-7.3081-1.7099-4.567 0-8.1316 1.2023-10.9699 3.6735-1.8003 1.5488-4.803 5.0196-4.803 10.8634 0 4.3208 1.5385 7.6952 4.8261 10.6221 3.0583 2.6818 6.4494 3.878 10.9746 3.878" stroke="#80949f" stroke-width=".5"/><path clip-rule="evenodd" d="m47.9111 17.2888h1.3644c1.2514 0 2.6778.0683 3.7573.8042.5272.3765 1.4117 1.2482 1.4117 2.8316 0 1.17-.5171 2.2191-1.3711 2.8738-1.0951.7948-2.3966.7492-3.4425.7492h-1.7198zm3.0659 12.5291c3.2314 0 5.7607-.9321 7.5173-2.6881 2.1607-2.1563 2.4836-5.1225 2.4836-6.6863 0-1.6732-.3966-4.9369-3.0567-7.3-2.1805-1.9107-4.507-2.3881-7.7888-2.3881h-8.7545v29.037h6.6586v-9.9745z" fill="#6b7b84" fill-rule="evenodd"/><path d="m47.9111 17.2888v-.25h-.25v.25zm5.1217.8042.1454-.2035-.0046-.0031zm.0406 5.7054.1469.2023.0051-.0039zm-5.1623.7492h-.25v.25h.25zm10.5832 2.5822-.1766-.1769-.0002.0001zm-.5731-13.9863.166-.1869-.0012-.0011zm-16.5433-2.3881v-.25h-.25v.25zm0 29.037h-.25v.25h.25zm6.6586 0v.25h.25v-.25zm0-9.9745v-.25h-.25v.25zm-.1254-12.2791h1.3644v-.5h-1.3644zm1.3644 0c1.2571 0 2.6084.0735 3.6165.7607l.2816-.4131c-1.1509-.7845-2.6524-.8476-3.8981-.8476zm3.612.7576c.4876.3483 1.307 1.1531 1.307 2.6282h.5c0-1.6916-.9497-2.6303-1.5163-3.0351zm1.307 2.6282c0 1.0959-.4838 2.0702-1.2732 2.6753l.3041.3969c.9187-.7042 1.4691-1.8281 1.4691-3.0722zm-1.268 2.6714c-1.0174.7385-2.2294.7016-3.2956.7016v.5c1.0255 0 2.4166.0543 3.5893-.7969zm-3.2956.7016h-1.7198v.5h1.7198zm-1.4698.25v-7.2588h-.5v7.2588zm2.8159 5.5203c3.2798 0 5.8793-.9472 7.694-2.7613l-.3535-.3536c-1.6984 1.6979-4.1576 2.6149-7.3405 2.6149zm7.6939-2.7611c2.232-2.2275 2.557-5.2781 2.557-6.8633h-.5c0 1.5424-.3209 4.4243-2.4102 6.5094zm2.557-6.8633c0-1.7013-.4016-5.0537-3.1407-7.4869l-.332.3738c2.5811 2.2929 2.9727 5.4679 2.9727 7.1131zm-3.1419-7.488c-2.246-1.9681-4.6443-2.4501-7.9536-2.4501v.5c3.2543 0 5.5091.4728 7.624 2.3261zm-7.9536-2.4501h-8.7545v.5h8.7545zm-9.0045.25v29.037h.5v-29.037zm.25 29.287h6.6586v-.5h-6.6586zm6.9086-.25v-9.9745h-.5v9.9745zm-.25-9.7245h2.9405v-.5h-2.9405z" fill="#80949f"/><path clip-rule="evenodd" d="m80.953 24.4687c-1.4477-1.2826-3.4684-2.0262-5.7619-2.7974-1.6342-.5686-2.5346-.8819-3.1349-1.4292-.4738-.4022-.685-.8388-.685-1.4159 0-1.264.8589-2.6149 3.2702-2.6149 1.6387 0 3.0107.7007 4.0783 2.0817l.4238.5484 3.5162-4.4758-.3205-.3211c-2.1506-2.1521-4.9844-3.2891-8.1953-3.2891-6.4782 0-9.3781 4.2145-9.3781 8.3914 0 2.2414.7993 4.0492 2.3709 5.3707 1.407 1.2059 3.1228 1.8816 4.7687 2.4332l.186.0616c1.4616.4831 2.9732.9831 3.876 1.7911.6281.5771.908 1.2042.908 2.0333 0 1.9001-1.4964 3.177-3.7234 3.177-1.7604 0-4.0785-.8629-5.3049-3.2841l-.3208-.6343-4.3705 4.0458.2577.3645c1.3944 1.9745 4.541 5.2868 9.9459 5.2868 5.9597 0 10.1223-3.8316 10.1223-9.3173 0-3.1377-1.3766-4.9999-2.5287-6.0064z" fill="#6b7b84" fill-rule="evenodd"/><path d="m80.953 24.4687c-1.4477-1.2826-3.4684-2.0262-5.7619-2.7974-1.6342-.5686-2.5346-.8819-3.1349-1.4292-.4738-.4022-.685-.8388-.685-1.4159 0-1.264.8589-2.6149 3.2702-2.6149 1.6387 0 3.0107.7007 4.0783 2.0817l.4238.5484 3.5162-4.4758-.3205-.3211c-2.1506-2.1521-4.9844-3.2891-8.1953-3.2891-6.4782 0-9.3781 4.2145-9.3781 8.3914 0 2.2414.7993 4.0492 2.3709 5.3707 1.407 1.2059 3.1228 1.8816 4.7687 2.4332l.186.0616c1.4616.4831 2.9732.9831 3.876 1.7911.6281.5771.908 1.2042.908 2.0333 0 1.9001-1.4964 3.177-3.7234 3.177-1.7604 0-4.0785-.8629-5.3049-3.2841l-.3208-.6343-4.3705 4.0458.2577.3645c1.3944 1.9745 4.541 5.2868 9.9459 5.2868 5.9597 0 10.1223-3.8316 10.1223-9.3173 0-3.1377-1.3766-4.9999-2.5287-6.0064" stroke="#80949f" stroke-width=".5"/></svg>