<svg fill="none" height="18" viewBox="0 0 18 18" width="18" xmlns="http://www.w3.org/2000/svg"><path clip-rule="evenodd" d="m2.79348 1.25712c-.39053-.390527-1.02369-.390528-1.41421 0l-.12215.12215c-.390528.39052-.390527 1.02369 0 1.41421l6.20652 6.20652-6.20652 6.2065c-.390527.3905-.390528 1.0237 0 1.4142l.12215.1222c.39052.3905 1.02368.3905 1.41421 0l6.20652-6.2065 6.2065 6.2065c.3905.3905 1.0237.3905 1.4142 0l.1222-.1222c.3905-.3905.3905-1.0237 0-1.4142l-6.2065-6.2065 6.2065-6.20652c.3905-.39052.3905-1.02369 0-1.41421l-.1222-.12215c-.3905-.390528-1.0237-.390527-1.4142 0l-6.2065 6.20652z" fill="#fff" fill-rule="evenodd"/></svg>