<svg fill="none" height="20" viewBox="0 0 20 20" width="20" xmlns="http://www.w3.org/2000/svg"><g fill="#fff"><path d="m8.25807 13.4583.40878-.4089-1.71687-1.7172-.40877.4089-.20439-.2044c-.32702-.368-.65404-.5724-.98107-.5315-.24526 0-.44965.1635-.61316.4088-.24527.4089-.12263.8586-.08176 1.1448 0 .0818.04088.1227.04088.2044 0 .1227 0 .2862-.28614.3271-.40878.1227-.94019.2453-1.4716.5315-.7358.4089-1.22633.7769-1.51247 1.1448-1.5124772 1.9625-1.43072184 3.6389-1.43072184 3.7206 0 .1227.04087764.2045.12263284.2453l1.103699 1.1448c.08175.0818.16351.1227.24526.1227h.12264c.40877 0 1.88037-.0818 3.59723-1.431.3679-.2862.7358-.7768 1.14458-1.5128.28614-.4906.44965-1.0221.53141-1.4718.08175-.2862.20439-.2862.32702-.2862.04088 0 .12263.0408.20439.0408.16351.0409.32702.0818.53141.0818s.40878-.0409.61316-.1635c.24527-.1636.40878-.368.44966-.6133.04088-.3271-.12264-.6542-.49053-.9404z"/><path d="m16.884 4.87841 1.1348-.55238c.0421-.04249.1261-.08498.1681-.12747l1.7232-2.33699c.1261-.16996.1261-.4249-.042-.55237l-1.1768-1.189742c-.1261-.12747222-.3783-.1699629-.5464-.042491l-2.3116 1.742113c-.042.04249-.084.08498-.1261.16997l-.5463 1.14724-4.1609 4.0791 1.7652 1.78461z"/><path d="m17.8527 13.0448c-.9891-1.0412-2.4134-1.416-3.7586-1.0412l-6.44883-6.83029c.07912-.37483.11869-.70802.11869-1.08285 0-1.0412-.39564-2.0824-1.14735-2.87371-1.02865-1.1244971-2.57163-1.499329-3.99591-.999553-.07913.041648-.19782.166592-.23739.333184 0 .124944.03957.249888.1187.374832l1.93861 2.040757c.4352.45812.4352 1.24944 0 1.70756-.4352.45813-1.18691.45813-1.62211 0l-1.93861-2.04075c-.11869-.08329-.237381-.12494-.395635-.08329-.118691 0-.237381.12494-.276945.24988-.474762 1.45768-.1186905 3.08196.90996 4.1648.71215.79132 1.7408 1.2078 2.76945 1.2078.31651 0 .67258-.04165.98909-.12495l6.48838 6.83028c-.356 1.416.0396 2.9154.9891 3.9566.7517.7913 1.7013 1.1661 2.7299 1.1661.4352 0 .8308-.0833 1.266-.2082.1187-.0417.2374-.1666.277-.2916.0396-.1249 0-.2915-.1187-.3748l-1.9386-2.0408c-.1978-.2082-.3561-.5414-.3561-.8746s.1187-.6247.3561-.8746.5143-.3748.8308-.3748.5935.1249.8309.3748l1.9386 2.0408c.1187.0833.2373.1249.356.1249.1187-.0416.2374-.1249.277-.2499.1187-.4164.1978-.8746.1978-1.3327 0-1.0829-.3956-2.1241-1.1473-2.8737z"/></g></svg>