<svg fill="none" height="20" viewBox="0 0 16 20" width="16" xmlns="http://www.w3.org/2000/svg"><path clip-rule="evenodd" d="m0 1c0-.552285.447715-1 1-1h14c.5523 0 1 .447716 1 1v17.5c-.8284 0-1.5.6715-1.5 1.4999h-1c0-.8284-.6716-1.4999-1.5-1.4999s-1.5.6715-1.5 1.4999h-1c-.00005-.8284-.6716-1.4999-1.5-1.4999s-1.49995.6715-1.5 1.4999h-1c-.00005-.8284-.6716-1.4999-1.5-1.4999s-1.49995.6715-1.5 1.4999h-1c-.00005-.8284-.671601-1.4999-1.5-1.4999zm9.41631 10.7884c-.86274.5559-1.94597.8052-3.0867.5943-1.80218-.3355-3.24008-1.8501-3.47015-3.67135-.36426-2.88529 2.08976-5.2913 4.99433-4.83119 1.80217.28757 3.24961 1.76377 3.54681 3.5563.1822 1.11194-.0767 2.1376-.6135 2.99074l2.1089 2.0993c.3739.3738.3739.9873 0 1.3611-.3834.3835-.9969.3835-1.3708.0096zm-4.71049-3.72963c0-1.29882 1.05412-2.35294 2.35294-2.35294s2.35294 1.05412 2.35294 2.35294c0 1.29883-1.05412 2.35293-2.35294 2.35293s-2.35294-1.0541-2.35294-2.35293z" fill="#fff" fill-rule="evenodd"/></svg>