<svg fill="none" height="11" viewBox="0 0 8 11" width="8" xmlns="http://www.w3.org/2000/svg"><path clip-rule="evenodd" d="m6.50008.500076-2.5 2.500004-2.5-2.500004c-.27615-.276143-.723862-.276143-1.000004 0-.276143.276142-.276143.723854-.000001 1.000004l2.792895 2.79289c.39052.39052 1.02369.39052 1.41421 0l2.7929-2.79289c.27614-.27615.27614-.723862 0-1.000004-.27615-.276143-.72386-.276143-1 0zm0 6.000004-2.5 2.5-2.5-2.5c-.27615-.27615-.723862-.27615-1.000004 0-.276143.27614-.276143.72385-.000001 1l2.792895 2.79292c.39052.3905 1.02369.3905 1.41421 0l2.7929-2.79292c.27614-.27615.27614-.72386 0-1-.27615-.27615-.72386-.27615-1 0z" fill="#41f6d7" fill-rule="evenodd"/></svg>